<?xml version="1.0" encoding="UTF-8"?>
<svg width="29px" height="29px" viewBox="0 0 29 29" version="1.1" xmlns="http://www.w3.org/2000/svg" xmlns:xlink="http://www.w3.org/1999/xlink">
    <!-- Generator: Sketch 58 (84663) - https://sketch.com -->
    <title>Group</title>
    <desc>Created with Sketch.</desc>
    <g id="Page-1" stroke="none" stroke-width="1" fill="none" fill-rule="evenodd">
        <g id="Auto-Correct-Widget-Final" transform="translate(-1953.000000, -487.000000)" fill="#FFFFFF" fill-rule="nonzero">
            <g id="g10" transform="translate(1294.000000, 501.010670) scale(-1, 1) rotate(-180.000000) translate(-1294.000000, -501.010670) translate(0.000000, 0.010670)">
                <g id="g132" transform="translate(28.000000, 0.000000)">
                    <g id="g134-Clipped" transform="translate(-0.000000, 0.000000)">
                        <g id="g134" transform="translate(1923.333284, 395.999990)">
                            <g id="Group" transform="translate(0.666716, 90.677347)">
                                <g id="g144" transform="translate(0.000000, -0.000000)">
                                    <path d="M23.9999994,5.3333332 L23.9999994,8.93999978 L27.606666,8.93999978 L23.9999994,5.3333332 Z M23.5546661,9.83199975 C23.3079994,9.83199975 23.1079994,9.63199976 23.1079994,9.3853331 L23.1079994,4.70266655 L10.8439997,4.70266655 L10.8439997,4.93733321 L14.2239996,8.93999978 L22.2159994,8.93999978 L22.2159994,9.83199975 L14.977333,9.83199975 L17.2373329,12.5079997 L25.5613327,12.5079997 C25.806666,12.5079997 26.0079993,12.7079997 26.0079993,12.953333 C26.0079993,13.1986663 25.806666,13.3999997 25.5613327,13.3999997 L17.9906662,13.3999997 L18.0733329,13.497333 C18.3186662,13.749333 18.4519995,14.0799996 18.4519995,14.429333 C18.4519995,14.7866663 18.3119995,15.1239996 18.0599995,15.3746663 L17.8479996,15.5866663 C17.3559996,16.0799996 16.5799996,16.1159996 16.0439996,15.6693329 L11.957333,12.2639997 C11.7786664,12.117333 11.5226664,12.129333 11.353333,12.293333 L10.8439997,12.773333 L10.8439997,17.1906662 L10.8439997,27.2253327 L28.2373326,27.2253327 L28.2373326,9.83199975 L23.5546661,9.83199975 Z M8.26133313,4.59733322 L3.74399991,7.20666649 L4.27199989,10.2106664 L7.16933315,15.6999996 L9.95199975,16.5826663 L9.95199975,13.6159997 L9.3653331,14.169333 C9.18799977,14.3386663 8.90399978,14.3319996 8.73733311,14.1506663 C8.56799979,13.9719997 8.57466645,13.689333 8.75333311,13.5226663 L9.95199975,12.3919997 L10.7346664,11.6506664 C10.7706664,11.617333 10.8053331,11.5839997 10.8439997,11.5559997 C11.337333,11.1679997 12.0346664,11.1693331 12.5279997,11.5799997 L13.6399997,12.5079997 L14.7119996,13.3999997 L16.6146663,14.9839996 C16.7933329,15.133333 17.0519996,15.121333 17.2173329,14.9559996 L17.4279996,14.745333 C17.5133329,14.6586663 17.5599996,14.5479996 17.5599996,14.429333 C17.5599996,14.309333 17.5133329,14.197333 17.4279996,14.113333 C17.4199996,14.1039996 17.4119996,14.0946663 17.4039996,14.085333 L16.8239996,13.3999997 L13.809333,9.83199975 L13.185333,9.09066644 L10.8439997,6.31866651 L10.1266664,5.47066653 L9.95199975,5.3893332 L8.26133313,4.59733322 Z M8.42133312,2.95066659 L7.28533315,1.07066664 L2.08666661,4.0719999 L3.41466658,6.36799984 L8.0159998,3.70799991 C8.0239998,3.70266657 8.02933313,3.70133324 8.0359998,3.69866657 L8.26399979,3.56799991 C8.36533312,3.50799991 8.44266646,3.40933325 8.47199979,3.29199992 C8.50266645,3.17599992 8.48399979,3.05466659 8.42133312,2.95066659 M28.6839993,28.1173326 L10.3986664,28.1173326 C10.1519997,28.1173326 9.95199975,27.9159993 9.95199975,27.670666 L9.95199975,17.5186662 L6.72533317,16.4973329 C6.61333317,16.4613329 6.51999984,16.3826663 6.46533317,16.2799996 L3.44933325,10.5653331 C3.42933325,10.5253331 3.41466658,10.4799997 3.40533325,10.4359997 L2.8226666,7.13199982 L1.09199997,4.1319999 C0.970666642,3.91733324 1.04133331,3.64533324 1.25466664,3.52399991 L7.21733315,0.0813333313 C7.28933315,0.039999999 7.36399982,0.0199999995 7.44133315,0.0199999995 C7.59199981,0.0199999995 7.73999981,0.0959999976 7.82266647,0.235999994 L9.1853331,2.48799994 C9.37199977,2.7986666 9.4253331,3.16399992 9.33599977,3.51466658 C9.2893331,3.69599991 9.20666644,3.86133324 9.09466644,4.00533323 L9.95199975,4.40399989 L9.95199975,4.25599989 C9.95199975,4.0119999 10.1519997,3.81066657 10.3986664,3.81066657 L23.5546661,3.81066657 C23.5839994,3.81066657 23.6119994,3.8119999 23.6413327,3.8199999 L23.6426661,3.8199999 C23.6679994,3.8239999 23.6906661,3.83066657 23.7146661,3.84266657 C23.7199994,3.84266657 23.7239994,3.8439999 23.7279994,3.84666657 C23.7519994,3.85866657 23.7773327,3.8679999 23.7999994,3.8839999 C23.8026661,3.88666657 23.8053327,3.88666657 23.8053327,3.88666657 C23.8279994,3.90533324 23.8493327,3.92133324 23.8679994,3.94266657 L28.9973326,9.07199977 C29.0186659,9.09066644 29.0346659,9.11199977 29.0533326,9.13599977 C29.0533326,9.13599977 29.0533326,9.13866644 29.0559993,9.13999977 C29.0719993,9.16266644 29.0826659,9.18799977 29.0933326,9.21199977 C29.0959993,9.21599977 29.0973326,9.21999977 29.0973326,9.2253331 C29.1093326,9.25066644 29.1159993,9.27199977 29.1199993,9.2973331 L29.1199993,9.29866643 C29.1279993,9.32799977 29.1293326,9.3573331 29.1293326,9.3853331 L29.1293326,27.670666 C29.1293326,27.9159993 28.9279993,28.1173326 28.6839993,28.1173326" id="path146"></path>
                                </g>
                                <g id="g148" transform="translate(18.894533, 22.769466)">
                                    <path d="M6.6666665,1.3333333 L1.31466663,1.3333333 C1.06933331,1.3333333 0.867999978,1.13466664 0.867999978,0.887999978 C0.867999978,0.641333317 1.06933331,0.441333322 1.31466663,0.441333322 L6.6666665,0.441333322 C6.91333316,0.441333322 7.11333316,0.641333317 7.11333316,0.887999978 C7.11333316,1.13466664 6.91333316,1.3333333 6.6666665,1.3333333" id="path150"></path>
                                </g>
                                <g id="g152" transform="translate(18.894533, 19.201733)">
                                    <path d="M6.6666665,1.3333333 L1.31466663,1.3333333 C1.06933331,1.3333333 0.867999978,1.13466664 0.867999978,0.887999978 C0.867999978,0.639999984 1.06933331,0.441333322 1.31466663,0.441333322 L6.6666665,0.441333322 C6.91333316,0.441333322 7.11333316,0.639999984 7.11333316,0.887999978 C7.11333316,1.13466664 6.91333316,1.3333333 6.6666665,1.3333333" id="path154"></path>
                                </g>
                                <g id="g156" transform="translate(12.227866, 15.634000)">
                                    <path d="M13.333333,1.3333333 L1.29199997,1.3333333 C1.04533331,1.3333333 0.846666645,1.13466664 0.846666645,0.886666644 C0.846666645,0.639999984 1.04533331,0.441333322 1.29199997,0.441333322 L13.333333,0.441333322 C13.5799997,0.441333322 13.7799997,0.639999984 13.7799997,0.886666644 C13.7799997,1.13466664 13.5799997,1.3333333 13.333333,1.3333333" id="path158"></path>
                                </g>
                                <g id="g160" transform="translate(12.186133, 19.643200)">
                                    <path d="M1.3333333,0 L4.90133321,0 C5.14666654,0 5.34799987,0.198666662 5.34799987,0.446666655 L5.34799987,2.21466661 L4.45599989,1.32266663 L4.45599989,0.891999978 L1.77999996,0.891999978 L1.77999996,3.56799991 L4.17866656,3.56799991 L3.24799992,2.6386666 L2.89333326,2.99066659 C2.71999993,3.16533325 2.43733327,3.16533325 2.26266661,2.99066659 C2.08799995,2.81733326 2.08799995,2.5346666 2.26266661,2.36133327 L2.93199993,1.69199996 C3.01999992,1.60399996 3.13333326,1.56133329 3.24799992,1.56133329 C3.36133325,1.56133329 3.47466658,1.60399996 3.56266658,1.69199996 L6.01599985,4.1439999 C6.19066651,4.31866656 6.19066651,4.60133322 6.01599985,4.77466655 C5.84133319,4.94933321 5.55999986,4.94933321 5.3853332,4.77466655 L5.04399987,4.43466656 C4.99866654,4.44933322 4.95199988,4.45999989 4.90133321,4.45999989 L1.3333333,4.45999989 C1.08666664,4.45999989 0.887999978,4.25999989 0.887999978,4.01466657 L0.887999978,0.446666655 C0.887999978,0.198666662 1.08666664,0 1.3333333,0" id="path162"></path>
                                </g>
                            </g>
                        </g>
                    </g>
                </g>
            </g>
        </g>
    </g>
</svg>