<?xml version="1.0" encoding="UTF-8"?>
<svg width="144px" height="43px" viewBox="0 0 144 43" version="1.1" xmlns="http://www.w3.org/2000/svg" xmlns:xlink="http://www.w3.org/1999/xlink">
    <!-- Generator: Sketch 58 (84663) - https://sketch.com -->
    <title>Group 2</title>
    <desc>Created with Sketch.</desc>
    <g id="Page-1" stroke="none" stroke-width="1" fill="none" fill-rule="evenodd">
        <g id="Auto-Correct-Widget-Final" transform="translate(-2088.000000, -563.000000)" fill="#F15A26" fill-rule="nonzero">
            <g id="g10" transform="translate(1293.500000, 517.510670) scale(-1, 1) rotate(-180.000000) translate(-1293.500000, -517.510670) translate(0.000000, 0.010670)">
                <g id="g132" transform="translate(27.000000, -0.000000)">
                    <g id="g134-Clipped" transform="translate(0.000000, 0.000000)">
                        <g id="g134" transform="translate(1930.333284, 428.999990)">
                            <g id="Group-2" transform="translate(130.217333, 0.438667)">
                                <g id="Group">
                                    <g id="g164" transform="translate(0.524797, 0.503733)">
                                        <path d="M14.6666663,0 C15.0786663,0.498666654 26.0199993,12.4586664 27.746666,22.1119994 C27.9399993,23.1959994 27.718666,24.0319994 27.1453327,24.4679994 C26.2853327,25.122666 24.9919994,25.478666 21.9119995,25.478666 C19.6333328,25.478666 17.1879996,25.4773327 16.1413329,25.4773327 C16.0453329,25.4973327 15.6946663,25.6093327 15.6813329,26.0279993 L15.6666663,32.6759992 C15.6653329,33.0946658 16.0053329,33.4373325 16.4253329,33.4373325 C16.8466662,33.4373325 17.1866662,33.0986658 17.1879996,32.6786658 C17.1879996,32.6786658 17.1959996,29.0706659 17.1973329,27.7879993 C17.1973329,27.662666 17.2706662,27.374666 17.5519996,27.2999993 C19.3919995,26.8093327 28.6933326,27.1679993 28.5479993,28.8546659 C28.5453326,28.8599993 28.5453326,28.8653326 28.5453326,28.8719993 C27.7573326,35.8479991 21.8399995,41.2693323 14.6506663,41.2693323 C12.3879997,41.2693323 10.2466664,40.7306656 8.34933312,39.775999 C3.80666657,37.4439991 0.582666652,32.7346658 0.667999983,27.294666 C0.726666648,23.4386661 3.27066658,16.5853329 4.82666655,15.5693329 C5.54399986,15.0999996 6.48933317,15.2746663 10.7159997,15.2746663 C12.6319997,15.2746663 14.417333,15.2666663 15.2946663,15.2626663 C15.3839996,15.2466663 15.8626663,15.137333 15.8626663,14.697333 L15.8639996,14.697333 L15.8733329,9.64533309 C15.8746663,9.2253331 15.5346663,8.88399978 15.1159996,8.88399978 C14.6946663,8.88266644 14.3559996,9.22266644 14.353333,9.64133309 C14.353333,9.64133309 14.3919996,11.6706664 14.3919996,12.425333 C14.3919996,12.5999997 14.4039996,12.9026663 13.893333,13.129333 C12.209333,13.877333 6.74399983,13.4239997 6.43599984,12.5999997 C6.31866651,12.2826664 6.93066649,11.0546664 7.86933314,9.47999976 C11.0053331,4.53866655 14.6399996,0.0199999995 14.6666663,0" id="path166"></path>
                                    </g>
                                    <path d="M66.7995951,22.8578661 C66.6462618,22.4325328 66.4875951,21.9151995 66.3462618,21.4338661 C66.1835955,21.9285328 65.9862618,22.4645328 65.7795951,22.8965328 L62.5569285,29.6591993 L61.6782619,29.6591993 L58.5035953,22.8965328 C58.2969287,22.4645328 58.0995953,21.9298661 57.9355953,21.4338661 C57.7969287,21.9151995 57.638262,22.4325328 57.486262,22.8578661 L55.0675954,29.5191993 L50.6835955,29.5191993 L56.8635954,12.6298664 L57.7689287,12.6298664 L61.6022619,20.5378662 C61.7729286,20.9005328 61.9542619,21.3511995 62.1102619,21.7658661 C62.2622619,21.3511995 62.4382619,20.9031995 62.6102619,20.5405328 L66.3009285,12.6298664 L67.2115951,12.6298664 L73.2929283,29.5191993 L69.1902617,29.5191993 L66.7995951,22.8578661 Z" id="path174"></path>
                                    <polygon id="path176" points="78.1866615 12.769333 82.3266614 12.769333 82.3266614 29.5199993 78.1866615 29.5199993"></polygon>
                                    <g id="g178" transform="translate(87.906395, 11.742000)">
                                        <path d="M7.9999998,6.6666665 L11.8306664,6.6666665 L11.8306664,5.05333321 C11.1413331,4.78666655 10.1306664,4.61866655 9.15866644,4.61866655 C6.23333318,4.61866655 4.34266656,6.50133317 4.34266656,9.41466643 C4.34266656,12.209333 6.11333318,14.161333 8.64666645,14.161333 C10.2773331,14.161333 11.0919997,13.6586663 11.8826664,12.8466663 L12.1906664,12.5306664 L15.0119996,15.3226663 L14.7426663,15.6333329 C13.361333,17.2079996 11.3666664,17.9746662 8.64666645,17.9746662 C3.69866657,17.9746662 0.107999997,14.3746663 0.107999997,9.41466643 C0.107999997,4.35999989 3.82933324,0.829333313 9.15866644,0.829333313 C12.3186664,0.829333313 14.6506663,2.05066662 15.5306663,2.77333326 L15.6906663,2.90399993 L15.6906663,10.4119997 L7.9999998,10.4119997 L7.9999998,6.6666665 Z" id="path180"></path>
                                    </g>
                                    <g id="g182" transform="translate(108.894661, 11.742000)">
                                        <path d="M7.9999998,6.6666665 L11.829333,6.6666665 L11.829333,5.05333321 C11.1413331,4.78666655 10.1306664,4.61866655 9.15866644,4.61866655 C6.23199984,4.61866655 4.34133322,6.50133317 4.34133322,9.41466643 C4.34133322,12.209333 6.11199985,14.161333 8.64399978,14.161333 C10.2759997,14.161333 11.0933331,13.6586663 11.881333,12.8466663 L12.1906664,12.5306664 L15.0119996,15.3226663 L14.7426663,15.6333329 C13.361333,17.2079996 11.365333,17.9746662 8.64399978,17.9746662 C3.69866657,17.9746662 0.107999997,14.3746663 0.107999997,9.41466643 C0.107999997,4.35999989 3.82933324,0.829333313 9.15866644,0.829333313 C12.3186664,0.829333313 14.6506663,2.05066662 15.5306663,2.77333326 L15.6906663,2.90399993 L15.6906663,10.4119997 L7.9999998,10.4119997 L7.9999998,6.6666665 Z" id="path184"></path>
                                    </g>
                                    <g id="g186" transform="translate(126.425860, 12.186000)">
                                        <path d="M13.333333,17.3333329 L10.5279997,11.9879997 C10.2146664,11.3999997 9.90133309,10.6386664 9.66533309,10.0199997 C9.41466643,10.6439997 9.08533311,11.4119997 8.77066645,11.993333 L5.84666652,17.3333329 L1.22799997,17.3333329 L7.55733314,5.94933318 L7.55733314,0.582666652 L11.721333,0.582666652 L11.721333,6.18799985 L17.6626662,17.3333329 L13.333333,17.3333329 Z" id="path188"></path>
                                    </g>
                                </g>
                                <g id="g168" transform="translate(34.936263, 12.430800)">
                                    <path d="M7.9999998,10.6666664 L7.18533315,11.0173331 C5.76399986,11.6319997 5.43866653,11.9279997 5.43866653,12.601333 C5.43866653,13.1879997 5.88133319,13.5666663 6.56799984,13.5666663 C7.22266649,13.5666663 7.74133314,13.369333 8.28933313,12.3879997 L8.51599979,11.985333 L11.7959997,14.0906663 L11.5906664,14.4519996 C10.4933331,16.3853329 8.89733311,17.2866662 6.56799984,17.2866662 C3.49199991,17.2866662 1.3453333,15.3319996 1.3453333,12.5306664 C1.3453333,9.41599976 3.35999992,8.12933313 5.53066653,7.20266649 L6.34533317,6.8546665 C7.94933313,6.15333318 8.46666646,5.86133319 8.46666646,5.08399987 C8.46666646,4.37866656 7.75066647,3.9079999 6.68399983,3.9079999 C5.44799986,3.9079999 4.59466655,4.43733322 3.83333324,5.68533319 L3.61199991,6.04666652 L0.225333328,4.08533323 L0.410666656,3.71866657 C1.56266663,1.4453333 3.87333324,0.139999996 6.7546665,0.139999996 C10.3093331,0.139999996 12.6066664,2.09866661 12.6066664,5.12933321 C12.6066664,8.0959998 10.8453331,9.44799976 7.9999998,10.6666664" id="path170"></path>
                                </g>
                            </g>
                        </g>
                    </g>
                </g>
            </g>
        </g>
    </g>
</svg>