<?xml version="1.0" encoding="UTF-8"?>
<svg width="20px" height="29px" viewBox="0 0 20 29" version="1.1" xmlns="http://www.w3.org/2000/svg" xmlns:xlink="http://www.w3.org/1999/xlink">
    <!-- Generator: Sketch 58 (84663) - https://sketch.com -->
    <title>path142</title>
    <desc>Created with Sketch.</desc>
    <g id="Page-1" stroke="none" stroke-width="1" fill="none" fill-rule="evenodd">
        <g id="Auto-Correct-Widget-Final" transform="translate(-2296.000000, -487.000000)" fill="#FFFFFF" fill-rule="nonzero">
            <g id="g10" transform="translate(1305.500000, 503.510670) scale(-1, 1) rotate(-180.000000) translate(-1305.500000, -503.510670) translate(0.000000, 0.010670)">
                <g id="g132" transform="translate(0.000000, 0.000000)">
                    <g id="g134-Clipped" transform="translate(0.000000, 0.000000)">
                        <g id="g134" transform="translate(2008.333284, 400.999990)">
                            <g id="g140" transform="translate(288.179726, 90.510131)">
                                <path d="M9.6666664,1.13686838e-13 C9.94666639,0.339999992 17.4066662,8.49199979 18.5826662,15.073333 C18.7146662,15.8133329 18.5639995,16.3826663 18.1733329,16.6799996 C17.5866662,17.1266662 16.7053329,17.3679996 14.6053329,17.3679996 C13.0519996,17.3679996 11.385333,17.3666662 10.6719997,17.3666662 C10.605333,17.3799996 10.365333,17.4573329 10.3586664,17.7439996 L10.3479997,22.2746661 C10.3479997,22.5613328 10.5799997,22.7933328 10.8639997,22.7946661 L10.865333,22.7946661 C11.1506664,22.7946661 11.3839997,22.5626661 11.3839997,22.2759994 C11.3839997,22.2759994 11.3906664,19.8159995 11.3919997,18.9426662 C11.3919997,18.8586662 11.441333,18.6613329 11.6346664,18.6093329 C12.8879997,18.2759995 19.2266662,18.5199995 19.1293328,19.6693328 C19.1279995,19.6733328 19.1279995,19.6773328 19.1279995,19.6826662 C18.5893328,24.4359994 14.5559996,28.1333326 9.65599973,28.1333326 C8.11333311,28.1333326 6.65199981,27.7653326 5.35999984,27.114666 C2.26399992,25.5253327 0.0653333067,22.3133328 0.122666639,18.6066662 C0.163999971,15.9773329 1.89733326,11.3053331 2.95866657,10.6133331 C3.44799989,10.2933331 4.09199987,10.4119997 6.9719998,10.4119997 C8.27999977,10.4119997 9.49599974,10.4079997 10.0933331,10.4053331 C10.1559997,10.3933331 10.481333,10.3186664 10.481333,10.0199997 L10.4826664,10.0199997 L10.489333,6.5746665 C10.489333,6.28799984 10.2573331,6.05599985 9.97199973,6.05599985 C9.6866664,6.05466652 9.45333307,6.28666651 9.45333307,6.57333317 C9.45333307,6.57333317 9.47733307,7.95466647 9.47733307,8.47066645 C9.47733307,8.58933312 9.4866664,8.79466645 9.13866641,8.94933311 C7.99066644,9.45999976 4.2653332,9.15199977 4.05599987,8.58799979 C3.97599988,8.37199979 4.3933332,7.53466648 5.03333318,6.46266651 C7.17066646,3.09333326 9.26799974,0.469333322 9.6066664,0.0479999988 C9.62933307,0.0293333326 9.64799973,0.013333333 9.6666664,1.13686838e-13" id="path142"></path>
                            </g>
                        </g>
                    </g>
                </g>
            </g>
        </g>
    </g>
</svg>